<svg width="30" height="30" viewBox="0 0 30 30" fill="none" xmlns="http://www.w3.org/2000/svg">
<path d="M26.27 12.4304L26.78 14.4304L26.5 14.5004H3.19995L3.72999 12.4304L3.99999 12.5004H26L26.27 12.4304Z" fill="#00448F"/>
<path d="M26.2701 12.43L26.0001 12.5H4.0001L3.7301 12.43L5.00006 7.5H7.0001V9.49998H14.0001V7.5H16.0001V9.49998H23.0001V7.5H25.0001L26.2701 12.43Z" fill="#DAEFF6"/>
<path d="M24.9999 0.499756V7.49977H22.9999V4.99975H15.9999V7.49977H13.9999V4.99975H6.99992V7.49977H4.99988V0.499756H24.9999Z" fill="#168DE2"/>
<path d="M29.5 24.9994V29.4994H0.5V24.9994L0.595039 24.6394L2 24.9994H13.5H14.5H15.5H16.5H28L29.405 24.6394L29.5 24.9994Z" fill="#168DE2"/>
<path d="M26.7799 14.4294L29.4049 24.6395L28 24.9995H16.5H15.4999H14.5H13.5H1.99993L0.594971 24.6395L3.19993 14.4995H26.5L26.7799 14.4294Z" fill="#62BEFF"/>
<path d="M23.0001 7.50002V9.50001H16.0001V7.50002V5H23.0001V7.50002Z" fill="#F9B544"/>
<path d="M14 7.50002V9.50001H7V7.50002V5H14V7.50002Z" fill="#F9B544"/>
<path d="M0.49998 30H29.5C29.7759 30 29.9999 29.776 29.9999 29.5V25C29.9999 24.958 29.9944 24.916 29.9839 24.8755L25.5 7.43701V0.49998C25.5 0.224004 25.276 0 25 0H4.99998C4.724 0 4.5 0.224004 4.5 0.49998V7.43695L0.0159961 24.8755C0.00550781 24.916 0 24.958 0 25V29.5C0 29.776 0.224004 30 0.49998 30ZM5.50002 1.00002H24.5V7.00002H23.5V4.99998C23.5 4.724 23.276 4.5 23 4.5H16C15.724 4.5 15.5 4.724 15.5 4.99998V6.99996H14.5V4.99998C14.5 4.724 14.276 4.5 14 4.5H7.00002C6.72404 4.5 6.50004 4.724 6.50004 4.99998V6.99996H5.50002V1.00002ZM22.5 5.50002V9H16.5V5.50002H22.5ZM13.5 5.50002V9H7.5V5.50002H13.5ZM5.38752 7.99998H6.50004V9.49998C6.50004 9.77596 6.72404 9.99996 7.00002 9.99996H14C14.276 9.99996 14.5 9.77596 14.5 9.49998V7.99998H15.5V9.49998C15.5 9.77596 15.724 9.99996 16 9.99996H23C23.276 9.99996 23.5 9.77596 23.5 9.49998V7.99998H24.6125L25.641 12H4.35902L5.38752 7.99998ZM4.09998 13H25.9L26.157 14H3.84498L4.09998 13ZM1.00002 25.063L3.58752 15H26.4125L29 25.063V29H1.00002V25.063Z" fill="#01384D"/>
<path d="M27.9999 24.5002H16.4999V25.5003H27.9999V24.5002Z" fill="#01384D"/>
<path d="M15.4999 24.5002H14.4999V25.5003H15.4999V24.5002Z" fill="#01384D"/>
<path d="M13.4999 24.5002H1.99988V25.5003H13.4999V24.5002Z" fill="#01384D"/>
</svg>
