<svg width="20" height="20" viewBox="0 0 20 20" fill="none" xmlns="http://www.w3.org/2000/svg">
<path d="M10.0001 1.66667C6.77508 1.66667 4.16675 4.275 4.16675 7.5C4.16675 10.975 7.85008 15.7667 9.36675 17.5917C9.70008 17.9917 10.3084 17.9917 10.6417 17.5917C12.1501 15.7667 15.8334 10.975 15.8334 7.5C15.8334 4.275 13.2251 1.66667 10.0001 1.66667ZM10.0001 9.58333C8.85008 9.58333 7.91675 8.65 7.91675 7.5C7.91675 6.35 8.85008 5.41667 10.0001 5.41667C11.1501 5.41667 12.0834 6.35 12.0834 7.5C12.0834 8.65 11.1501 9.58333 10.0001 9.58333Z" fill="white"/>
</svg>
