<svg width="20" height="20" viewBox="0 0 20 20" fill="none" xmlns="http://www.w3.org/2000/svg">
<path fill-rule="evenodd" clip-rule="evenodd" d="M0.990271 2.87254C1.30659 2.34878 3.04944 0.443765 4.29316 0.501275C4.66494 0.532084 4.99358 0.756989 5.2606 1.01784C5.87373 1.61656 7.6289 3.88101 7.72853 4.35753C7.9709 5.52621 6.57827 6.1999 7.00448 7.37783C8.09106 10.0366 9.96331 11.9088 12.6233 12.9943C13.8002 13.4205 14.474 12.0279 15.6427 12.2713C16.1182 12.3709 18.3838 14.126 18.9826 14.7391C19.2424 15.0051 19.4683 15.3347 19.4992 15.7065C19.5454 17.0159 17.5222 18.7833 17.1278 19.0092C16.1973 19.6747 14.9834 19.6634 13.5034 18.9753C9.37381 17.2572 2.7742 10.7822 1.02416 6.49669C0.354547 5.02505 0.308332 3.80297 0.990271 2.87254Z" fill="#01384D"/>
</svg>
