<svg width="20" height="20" viewBox="0 0 20 20" fill="none" xmlns="http://www.w3.org/2000/svg">
<path d="M9.16658 15H11.6666C12.1249 15 12.4999 14.625 12.4999 14.1667V5.00001C12.4999 4.54167 12.1249 4.16667 11.6666 4.16667H9.16658C8.70825 4.16667 8.33325 4.54167 8.33325 5.00001V14.1667C8.33325 14.625 8.70825 15 9.16658 15ZM4.16659 15H6.66659C7.12492 15 7.49992 14.625 7.49992 14.1667V5.00001C7.49992 4.54167 7.12492 4.16667 6.66659 4.16667H4.16659C3.70825 4.16667 3.33325 4.54167 3.33325 5.00001V14.1667C3.33325 14.625 3.70825 15 4.16659 15ZM13.3333 5.00001V14.1667C13.3333 14.625 13.7083 15 14.1666 15H16.6666C17.1249 15 17.4999 14.625 17.4999 14.1667V5.00001C17.4999 4.54167 17.1249 4.16667 16.6666 4.16667H14.1666C13.7083 4.16667 13.3333 4.54167 13.3333 5.00001Z" fill="white"/>
</svg>
