<svg width="26" height="26" viewBox="0 0 26 26" fill="none" xmlns="http://www.w3.org/2000/svg">
<rect opacity="0.1" width="26" height="26" rx="5" fill="#01384D"/>
<path d="M17.4376 9.56876C17.1938 9.32501 16.8001 9.32501 16.5563 9.56876L13.5001 12.6188L10.4438 9.56251C10.2001 9.31876 9.80632 9.31876 9.56257 9.56251C9.31882 9.80626 9.31882 10.2 9.56257 10.4438L12.6188 13.5L9.56257 16.5563C9.31882 16.8 9.31882 17.1938 9.56257 17.4375C9.80632 17.6813 10.2001 17.6813 10.4438 17.4375L13.5001 14.3813L16.5563 17.4375C16.8001 17.6813 17.1938 17.6813 17.4376 17.4375C17.6813 17.1938 17.6813 16.8 17.4376 16.5563L14.3813 13.5L17.4376 10.4438C17.6751 10.2063 17.6751 9.80626 17.4376 9.56876Z" fill="black"/>
</svg>
