<svg width="34" height="34" viewBox="0 0 34 34" fill="none" xmlns="http://www.w3.org/2000/svg">
<rect opacity="0.1" width="34" height="34" rx="5" fill="#D61F1F"/>
<g clip-path="url(#clip0_127_108)">
<path d="M12.25 22.625C12.25 23.5875 13.0375 24.375 14 24.375H21C21.9625 24.375 22.75 23.5875 22.75 22.625V13.875C22.75 12.9125 21.9625 12.125 21 12.125H14C13.0375 12.125 12.25 12.9125 12.25 13.875V22.625ZM22.75 9.5H20.5625L19.9412 8.87875C19.7837 8.72125 19.5563 8.625 19.3288 8.625H15.6712C15.4437 8.625 15.2162 8.72125 15.0588 8.87875L14.4375 9.5H12.25C11.7687 9.5 11.375 9.89375 11.375 10.375C11.375 10.8563 11.7687 11.25 12.25 11.25H22.75C23.2312 11.25 23.625 10.8563 23.625 10.375C23.625 9.89375 23.2312 9.5 22.75 9.5Z" fill="#D61F1F"/>
</g>
<defs>
<clipPath id="clip0_127_108">
<rect width="21" height="21" fill="white" transform="translate(7 8)"/>
</clipPath>
</defs>
</svg>
