<svg width="20" height="20" viewBox="0 0 20 20" fill="none" xmlns="http://www.w3.org/2000/svg">
<path d="M5.83325 15C4.91658 15 4.17492 15.75 4.17492 16.6667C4.17492 17.5833 4.91658 18.3333 5.83325 18.3333C6.74992 18.3333 7.49992 17.5833 7.49992 16.6667C7.49992 15.75 6.74992 15 5.83325 15ZM0.833252 2.50001C0.833252 2.95834 1.20825 3.33334 1.66659 3.33334H2.49992L5.49992 9.65834L4.37492 11.6917C3.76659 12.8083 4.56659 14.1667 5.83325 14.1667H14.9999C15.4583 14.1667 15.8333 13.7917 15.8333 13.3333C15.8333 12.875 15.4583 12.5 14.9999 12.5H5.83325L6.74992 10.8333H12.9583C13.5833 10.8333 14.1333 10.4917 14.4166 9.97501L17.3999 4.56667C17.7083 4.01667 17.3083 3.33334 16.6749 3.33334H4.34159L3.78325 2.14167C3.64992 1.85001 3.34992 1.66667 3.03325 1.66667H1.66659C1.20825 1.66667 0.833252 2.04167 0.833252 2.50001ZM14.1666 15C13.2499 15 12.5083 15.75 12.5083 16.6667C12.5083 17.5833 13.2499 18.3333 14.1666 18.3333C15.0833 18.3333 15.8333 17.5833 15.8333 16.6667C15.8333 15.75 15.0833 15 14.1666 15Z" fill="white"/>
</svg>
