<svg width="20" height="20" viewBox="0 0 20 20" fill="none" xmlns="http://www.w3.org/2000/svg">
<path d="M17.4917 14.9917L13.3751 10.875L11.6084 12.6417L15.7251 16.7583C16.2167 17.25 17.0084 17.25 17.4917 16.7583C17.9751 16.2667 17.9751 15.475 17.4917 14.9917Z" fill="white"/>
<path d="M14.7084 8.33333C16.3167 8.33333 17.625 7.025 17.625 5.41667C17.625 4.93334 17.4917 4.48334 17.2834 4.08334L15.0334 6.33334L13.7917 5.09167L16.0417 2.84167C15.6417 2.63334 15.1917 2.5 14.7084 2.5C13.1 2.5 11.7917 3.80834 11.7917 5.41667C11.7917 5.75834 11.8584 6.08334 11.9667 6.38334L10.425 7.925L8.9417 6.44167C9.2667 6.11667 9.2667 5.59167 8.9417 5.26667L8.35003 4.675L10.1167 2.90834C9.1417 1.93334 7.55837 1.93334 6.58337 2.90834L4.23337 5.26667C3.90837 5.59167 3.90837 6.11667 4.23337 6.44167L4.82503 7.03333H2.70837C2.55003 7.03333 2.40003 7.09167 2.2917 7.20833C2.05837 7.44167 2.05837 7.80833 2.2917 8.04167L4.40837 10.1583C4.6417 10.3917 5.00837 10.3917 5.2417 10.1583C5.35003 10.05 5.4167 9.9 5.4167 9.74167V7.625L6.00003 8.20834C6.32503 8.53334 6.85003 8.53334 7.17503 8.20834L8.65837 9.69167L3.3667 14.9833C2.87503 15.475 2.87503 16.2667 3.3667 16.75C3.85837 17.2417 4.65003 17.2417 5.13337 16.75L13.7334 8.15834C14.0417 8.26667 14.3667 8.33333 14.7084 8.33333Z" fill="white"/>
</svg>
