<svg width="11" height="10" viewBox="0 0 11 10" fill="none" xmlns="http://www.w3.org/2000/svg">
<path d="M0.242286 0.626964C0.308704 0.564256 0.387606 0.514504 0.474472 0.480557C0.561338 0.446611 0.654463 0.429138 0.748511 0.429138C0.842559 0.429138 0.935683 0.446611 1.02255 0.480557C1.10942 0.514504 1.18832 0.564256 1.25474 0.626964L5.03855 4.19175L8.82236 0.626964C8.88884 0.564357 8.96776 0.514695 9.05462 0.480812C9.14148 0.44693 9.23457 0.429491 9.32859 0.429491C9.4226 0.429491 9.51569 0.44693 9.60255 0.480812C9.68941 0.514695 9.76833 0.564357 9.83481 0.626964C9.90129 0.68957 9.95402 0.763895 9.99 0.845694C10.026 0.927494 10.0445 1.01517 10.0445 1.10371C10.0445 1.19224 10.026 1.27992 9.99 1.36172C9.95402 1.44352 9.90129 1.51784 9.83481 1.58045L6.04957 5.14389L9.83481 8.70733C9.90129 8.76993 9.95402 8.84426 9.99 8.92606C10.026 9.00786 10.0445 9.09553 10.0445 9.18407C10.0445 9.27261 10.026 9.36028 9.99 9.44208C9.95402 9.52388 9.90129 9.5982 9.83481 9.66081C9.76833 9.72342 9.68941 9.77308 9.60255 9.80696C9.51569 9.84084 9.4226 9.85828 9.32859 9.85828C9.23457 9.85828 9.14148 9.84084 9.05462 9.80696C8.96776 9.77308 8.88884 9.72342 8.82236 9.66081L5.03855 6.09602L1.25474 9.66081C1.18826 9.72342 1.10934 9.77308 1.02248 9.80696C0.935619 9.84084 0.842525 9.85828 0.748511 9.85828C0.654496 9.85828 0.561402 9.84084 0.474544 9.80696C0.387686 9.77308 0.308764 9.72342 0.242286 9.66081C0.175808 9.5982 0.123074 9.52388 0.0870963 9.44208C0.0511185 9.36028 0.0326009 9.27261 0.0326009 9.18407C0.0326009 9.09553 0.0511185 9.00786 0.0870963 8.92606C0.123074 8.84426 0.175808 8.76993 0.242286 8.70733L4.02753 5.14389L0.242286 1.58045C0.1757 1.5179 0.122871 1.44359 0.0868256 1.36178C0.0507801 1.27998 0.0322266 1.19228 0.0322266 1.10371C0.0322266 1.01513 0.0507801 0.927434 0.0868256 0.845627C0.122871 0.76382 0.1757 0.689513 0.242286 0.626964Z" fill="white"/>
</svg>
